<svg viewBox="0 0 1220 333" xmlns="http://www.w3.org/2000/svg" fill-rule="evenodd" clip-rule="evenodd" stroke-linejoin="round" stroke-miterlimit="1.41421"><path d="M359.90308 116.76533h-30.985l-7.031 19.12499h-6.047l25.828-68.24996h5.485l25.828 68.24996h-6l-7.078-19.125zm-29.203-4.922h27.375l-13.688-37.17098-13.687 37.17098zM395.26108 208.81227c0 9.469-1.571 17.731-4.711 24.78499-3.141 7.055-7.477 12.715-13.008 16.98099l16.523 13.078-15.258 12.93698-22.007-17.71799c-2.063.281-4.125.422-6.188.422-8.719 0-16.453-2.016-23.203-6.047-6.75-4.03199-12.012-9.79699-15.785-17.29698-3.774-7.5-5.731-16.125-5.871-25.87499v-5.414c0-10.07799 1.84-18.93798 5.519-26.57798 3.68-7.641 8.93-13.54699 15.75-17.71899 6.821-4.172 14.637-6.258 23.449-6.258 8.672 0 16.407 2.063 23.204 6.188 6.796 4.125 12.082 9.996 15.855 17.613 3.773 7.61699 5.684 16.34698 5.731 26.19098v4.711zm-25.102-4.289c0-10.17199-1.699-17.89398-5.098-23.16798-3.398-5.273-8.261-7.91-14.59-7.91-6.515 0-11.414 2.602-14.695 7.805-3.281 5.203-4.945 12.82-4.992 22.85099v4.711c0 10.07799 1.664 17.80098 4.992 23.16798 3.328 5.367 8.274 8.051 14.836 8.051 6.281 0 11.098-2.649 14.449-7.945 3.352-5.297 5.051-12.914 5.098-22.85199v-4.711zM452.07308 249.66425c-5.016 6.422-11.789 9.633-20.32 9.633-8.344 0-14.66-2.426-18.95-7.278-4.289-4.851-6.433-11.824-6.433-20.91799V181.8123h23.695v49.42997c0 6.515 3.164 9.773 9.492 9.773 5.438 0 9.305-1.945 11.602-5.836v-53.36697h23.836v76.07795h-22.219l-.703-8.22599zM530.82307 257.89024c-.844-1.547-1.594-3.82-2.25-6.82-4.359 5.484-10.453 8.227-18.281 8.227-7.172 0-13.266-2.168-18.281-6.504-5.016-4.33599-7.524-9.78599-7.524-16.34798 0-8.25 3.047-14.484 9.141-18.703 6.093-4.21899 14.953-6.32799 26.578-6.32799h7.312v-4.008c0-6.984-3.023-10.47699-9.07-10.47699-5.625 0-8.437 2.766-8.437 8.297h-23.696c0-7.359 3.129-13.336 9.387-17.929 6.258-4.59399 14.238-6.89099 23.941-6.89099s17.368 2.367 22.993 7.101c5.625 4.735 8.507 11.22699 8.648 19.47699v33.67998c.094 6.984 1.172 12.32799 3.234 16.03099v1.195h-23.695zm-14.836-15.46799c2.953 0 5.402-.633 7.348-1.899 1.945-1.266 3.34-2.695 4.183-4.289v-12.16398h-6.89c-8.25 0-12.375 3.703-12.375 11.10899 0 2.157.726 3.903 2.179 5.239 1.454 1.336 3.305 2.004 5.555 2.004zM610.41707 203.25728l-7.805-.562c-7.453 0-12.234 2.344-14.344 7.031v48.16396h-23.695V181.8123h22.219l.773 9.774c3.985-7.454 9.539-11.18 16.664-11.18 2.532 0 4.735.281 6.61.844l-.422 22.00699zM650.07307 162.8983v18.91399h12.516v16.45299h-12.516v34.80498c0 2.859.516 4.852 1.547 5.977s3.07 1.687 6.117 1.687c2.344 0 4.313-.141 5.906-.422v16.94499c-4.265 1.36-8.718 2.04-13.359 2.04-8.156 0-14.18-1.922-18.07-5.766-3.891-3.844-5.836-9.68-5.836-17.508v-37.75797h-9.703v-16.45299h9.703V162.8983h23.695zM708.71407 259.29724c-11.672 0-21.118-3.481-28.336-10.44199-7.219-6.961-10.828-16.01899-10.828-27.17598v-1.968c0-7.782 1.441-14.649 4.324-20.60199 2.883-5.953 7.09-10.559 12.621-13.816 5.531-3.25799 12.094-4.88699 19.687-4.88699 10.688 0 19.125 3.316 25.313 9.949 6.187 6.633 9.281 15.87899 9.281 27.73798v9.211h-47.109c.844 4.266 2.695 7.61799 5.554 10.05499 2.86 2.438 6.563 3.656 11.11 3.656 7.5 0 13.359-2.625 17.578-7.875l10.828 12.797c-2.953 4.07799-7.137 7.32399-12.551 9.73799-5.414 2.414-11.238 3.622-17.472 3.622zm-2.672-60.60996c-6.938 0-11.063 4.594-12.375 13.781h23.906v-1.828c.094-3.797-.867-6.738-2.883-8.824-2.015-2.086-4.898-3.129-8.648-3.129zM796.32306 203.25728l-7.805-.562c-7.453 0-12.234 2.344-14.343 7.031v48.16396h-23.696V181.8123h22.219l.773 9.774c3.985-7.454 9.54-11.18 16.665-11.18 2.531 0 4.734.281 6.609.844l-.422 22.00699zM873.31306 215.28127h-29.742v42.60897h-8.719V155.51531h33.258c10.922 0 19.453 2.649 25.594 7.946 6.14 5.29599 9.211 12.70298 9.211 22.21798 0 6.563-1.922 12.35199-5.766 17.36799-3.844 5.015-9 8.484-15.469 10.406l25.594 43.52297v.914h-9.211l-24.75-42.60898zm-29.742-7.383h26.508c7.265 0 13.101-2.062 17.507-6.187 4.407-4.12499 6.61-9.46899 6.61-16.03198 0-7.218-2.297-12.82-6.891-16.804-4.594-3.98499-11.039-5.97699-19.336-5.97699h-24.398v44.99997zM933.92206 257.89024h-8.437V181.8123h8.437v76.07795zm-9.914-98.08594c0-1.593.516-2.941 1.547-4.043 1.031-1.101 2.438-1.652 4.219-1.652 1.781 0 3.199.551 4.254 1.652 1.054 1.102 1.582 2.45 1.582 4.043 0 1.594-.528 2.93-1.582 4.008-1.055 1.078-2.473 1.617-4.254 1.617-1.781 0-3.188-.539-4.219-1.617-1.031-1.078-1.547-2.414-1.547-4.008zM984.89906 252.19525c5.859 0 10.769-1.652 14.73-4.957 3.961-3.305 6.106-7.582 6.434-12.832h8.086c-.234 4.641-1.688 8.871-4.359 12.691-2.672 3.821-6.223 6.809-10.653 8.965-4.43 2.156-9.176 3.235-14.238 3.235-9.984 0-17.895-3.469-23.731-10.407-5.836-6.937-8.753-16.26499-8.753-27.98398v-2.531c0-7.5 1.312-14.133 3.937-19.89899 2.625-5.765 6.387-10.219 11.285-13.359 4.899-3.14099 10.629-4.71099 17.192-4.71099 8.343 0 15.222 2.484 20.636 7.453s8.309 11.50799 8.684 19.61698h-8.086c-.375-5.953-2.52-10.75799-6.434-14.41399-3.914-3.656-8.847-5.484-14.8-5.484-7.594 0-13.489 2.742-17.684 8.226-4.195 5.485-6.293 13.172-6.293 23.06299v2.461c0 9.703 2.098 17.27299 6.293 22.71098 4.195 5.437 10.113 8.156 17.754 8.156zM1039.32105 194.67928c2.765-4.547 6.304-8.062 10.617-10.547 4.312-2.48399 9.023-3.72599 14.133-3.72599 8.156 0 14.226 2.297 18.211 6.891 3.984 4.593 6 11.48399 6.047 20.67098v49.92197h-8.368v-49.99197c-.046-6.797-1.488-11.85899-4.324-15.18699-2.836-3.329-7.371-4.993-13.605-4.993-5.203 0-9.809 1.629-13.817 4.887-4.008 3.258-6.972 7.652-8.894 13.184v52.10096h-8.367V149.89031h8.367v44.78897zM1139.44605 259.29724c-6.469 0-12.317-1.594-17.543-4.782-5.227-3.187-9.293-7.62899-12.199-13.32399-2.907-5.695-4.36-12.08199-4.36-19.15998v-3.024c0-7.312 1.418-13.898 4.254-19.75699 2.836-5.86 6.785-10.465 11.848-13.817 5.062-3.35099 10.547-5.02699 16.453-5.02699 9.234 0 16.558 3.152 21.973 9.457 5.414 6.305 8.121 14.91799 8.121 25.83998v4.711h-54.282v1.617c0 8.625 2.473 15.80799 7.418 21.55098 4.946 5.742 11.168 8.613 18.668 8.613 4.5 0 8.473-.82 11.918-2.461 3.446-1.641 6.575-4.266 9.387-7.875l5.273 4.008c-6.187 8.953-15.164 13.43-26.929 13.43zm-1.547-71.71895c-6.328 0-11.66 2.32-15.996 6.961-4.336 4.63999-6.973 10.87499-7.91 18.70298h45.632v-.914c-.234-7.313-2.32-13.26599-6.257-17.85999-3.938-4.593-9.094-6.89-15.469-6.89zM1219.53205 188.98429c-1.782-.328-3.68-.492-5.696-.492-5.25 0-9.691 1.465-13.324 4.394-3.633 2.93-6.222 7.18399-7.769 12.76199v52.24196h-8.368V181.8123h8.227l.141 12.094c4.453-9 11.601-13.5 21.445-13.5 2.344 0 4.195.305 5.555.914l-.211 7.664z" fill="#98a9b7" fill-rule="nonzero"/><g><path d="M150.87228-.00143c31.88373 0 57.02914 10.35395 75.43624 31.06185 18.4071 20.7079 27.61066 49.30453 27.61066 85.78988s-7.80659 69.68373-23.41975 99.59514c-15.61317 29.9114-37.38943 51.9341-65.32878 66.06806 14.13402 12.49048 24.15932 18.73572 30.07589 18.73572 17.421 0 31.55503-8.05307 42.40207-24.15922 5.58787-8.21742 10.0253-12.32613 13.31228-12.32613s4.93047 1.64349 4.93047 4.93045c0 7.88873-2.79393 16.10615-8.3818 24.65227-16.43491 25.63835-39.27944 38.45753-68.53358 38.45753-12.81924 0-30.24024-12.81918-52.26302-38.45753-9.20355 1.64348-17.58536 2.46522-25.14542 2.46522-29.91154 0-54.31738-10.847-73.21753-32.54098-18.90015-21.694-28.35023-48.15409-28.35023-79.38029 0-47.98974 11.83314-89.89858 35.49941-125.72654 11.50444-18.07832 27.19978-32.4588 47.08603-43.14146C102.47146 5.3399 125.23382-.00143 150.87228-.00143zM137.56 22.67866c-35.17071 0-61.0557 12.98352-77.65496 38.95057s-24.8989 60.31587-24.8989 103.04646c0 17.74963 3.61569 34.34881 10.84705 49.79757 7.23136 15.44875 16.59926 28.26792 28.1037 38.45753 9.53225-9.53221 19.3932-14.29832 29.58284-14.29832 10.18965 0 25.47411 9.53221 45.8534 28.59663 21.36539-6.90264 37.63595-21.11877 48.8117-42.64842 11.17573-21.52964 16.7636-48.89365 16.7636-82.09203 0-33.19838-7.23136-61.4663-21.69408-84.80378-14.46272-23.33748-33.03417-35.00621-55.71435-35.00621z" fill="#98a9b7" fill-rule="nonzero"/><path d="M128.28404 78.69957s-.72411-.54365-7.24345 2.716c0 0-6.33888 1.99188-11.59272 3.0792 0 0-8.69397 2.9901-12.22547 8.8287 0 0-7.063 6.9282-22.2763 30.01988 0 0-2.17235 6.97388-1.62869 9.9617 0 0-15.39376 22.45895-15.66559 23.27215 0 0-5.79522 10.05079.72412 10.50535l9.05488.54366s-1.44823 10.87084-1.35914 11.68176c.09137.81548-1.44824 2.716-.54366 10.77947 0 0-4.97973 5.07336-3.1683 9.32668 1.80915 4.2533 11.40998 4.71016 11.40998 4.71016s8.69397 8.60485 20.2844 10.23353c0 0-.99822 18.29244 1.80916 24.17672 2.80738 5.88656-15.026 11.47617-14.126 23.0894.46143 5.96651 54.87755 13.94319 67.37485 8.148 12.4973-5.7952 29.34386-9.41805 29.34386-9.41805s.81549 5.97565 0 7.70027c-.8132 1.71777 4.52744.53909 5.34293.53909.81549 0 3.17058-1.0896 2.62464-12.3145-.54366-11.22947.90457 7.15205 3.26195 7.96296 2.3551.81549 1.45052-3.8901 1.45052-4.43376 0-.5391 1.99189 3.4424 2.08326-.72183.08909-4.16194.99595-7.2457 1.17869-6.97388.17817.26726 4.96145 2.75026 2.97185-6.46449-.02513-.10736 3.91297-.05253 2.64062-9.74926 0 0 2.99013-14.2173-4.3447-14.39776-7.33482-.18274-14.30873 4.97971-16.29833 5.70611-1.99418.72183-4.71019-4.52742-2.3551-9.77896 2.3551-5.2561-3.0815-6.88479-3.0815-6.88479s-.35862-13.0409 7.4262-17.75106c7.78711-4.71017 21.36944-7.60662 8.69626-34.9539 0 0 4.52287-21.73484-2.71601-34.9539-7.25487-13.21451-11.05592-45.26968-59.0532-44.18465z" fill="#98a9b7" fill-rule="nonzero"/></g></svg>