<svg viewBox="0 0 256 333" xmlns="http://www.w3.org/2000/svg" fill-rule="evenodd" clip-rule="evenodd" stroke-linejoin="round" stroke-miterlimit="1.41421"><path d="M150.87238.0008c31.88373 0 57.02914 10.35398 75.43624 31.06194s27.61066 49.30468 27.61066 85.79014c0 36.48546-7.80659 69.68394-23.41975 99.59544-15.61317 29.9115-37.38943 51.93426-65.32878 66.06827 14.13402 12.49051 24.15932 18.73577 30.07589 18.73577 17.421 0 31.55503-8.0531 42.40207-24.15929 5.58787-8.21744 10.0253-12.32617 13.31228-12.32617s4.93047 1.6435 4.93047 4.93047c0 7.88875-2.79393 16.1062-8.3818 24.65234-16.43491 25.63843-39.27944 38.45764-68.53358 38.45764-12.81924 0-30.24024-12.81921-52.26302-38.45764-9.20355 1.64349-17.58536 2.46523-25.14542 2.46523-29.91154 0-54.31738-10.84703-73.21753-32.54108C9.44996 242.5798-.00012 216.11962-.00012 184.89333c0-47.98989 11.83314-89.89886 35.49941-125.72692 11.50444-18.07839 27.19978-32.45892 47.08603-43.1416C102.47156 5.34213 125.23392.0008 150.87238.0008zM137.5601 22.68094c-35.17071 0-61.0557 12.98356-77.65496 38.95069s-24.8989 60.31605-24.8989 103.04677c0 17.74968 3.61569 34.34893 10.84705 49.79772 7.23136 15.4488 16.59926 28.26802 28.1037 38.45765 9.53225-9.53224 19.3932-14.29836 29.58284-14.29836 10.18965 0 25.47411 9.53224 45.8534 28.59672 21.36539-6.90266 37.63595-21.11884 48.8117-42.64855 11.17573-21.5297 16.7636-48.8938 16.7636-82.09228s-7.23136-61.4665-21.69408-84.80404c-14.46272-23.33755-33.03417-35.00632-55.71435-35.00632z" fill="#98a9b7" fill-rule="nonzero"/><path d="M128.28414 78.70203s-.72411-.54365-7.24345 2.71601c0 0-6.33888 1.99189-11.59272 3.0792 0 0-8.69397 2.99012-12.22547 8.82874 0 0-7.063 6.9282-22.2763 30.01997 0 0-2.17235 6.9739-1.62869 9.96173 0 0-15.39376 22.45901-15.66559 23.27222 0 0-5.79522 10.05082.72412 10.50539l9.05488.54366s-1.44823 10.87087-1.35914 11.68179c.09137.81549-1.44824 2.716-.54366 10.7795 0 0-4.97973 5.07338-3.1683 9.3267 1.80915 4.25333 11.40998 4.71019 11.40998 4.71019s8.69397 8.60487 20.2844 10.23356c0 0-.99822 18.29249 1.80916 24.17679 2.80738 5.88658-15.026 11.4762-14.126 23.08947.46143 5.96653 54.87755 13.94323 67.37485 8.14802 12.4973-5.79521 29.34386-9.41808 29.34386-9.41808s.81549 5.97567 0 7.7003c-.8132 1.71778 4.52744.5391 5.34293.5391.81549 0 3.17058-1.0896 2.62464-12.31455-.54366-11.2295.90457 7.15208 3.26195 7.963 2.3551.81548 1.45052-3.89013 1.45052-4.43379 0-.53909 1.99189 3.4424 2.08326-.72183.08909-4.16195.99595-7.24573 1.17869-6.9739.17817.26726 4.96145 2.75027 2.97185-6.4645-.02513-.10736 3.91297-.05254 2.64062-9.7493 0 0 2.99013-14.21734-4.3447-14.3978-7.33482-.18274-14.30873 4.97973-16.29833 5.70613-1.99418.72183-4.71019-4.52744-2.3551-9.779 2.3551-5.25612-3.0815-6.8848-3.0815-6.8848s-.35862-13.04094 7.4262-17.75112c7.78711-4.71018 21.36944-7.60665 8.69626-34.95401 0 0 4.52287-21.7349-2.71601-34.95401-7.25487-13.21455-11.05592-45.2698-59.0532-44.18478z" fill="#98a9b7" fill-rule="nonzero"/></svg>